<?xml version="1.0" standalone="no"?><!DOCTYPE svg PUBLIC "-//W3C//DTD SVG 1.1//EN" "http://www.w3.org/Graphics/SVG/1.1/DTD/svg11.dtd"><svg t="1619444344220" class="icon" viewBox="0 0 1024 1024" version="1.1" xmlns="http://www.w3.org/2000/svg" p-id="4404" xmlns:xlink="http://www.w3.org/1999/xlink" width="200" height="200"><defs><style type="text/css"></style></defs><path d="M502.59 796.76h-232a10 10 0 1 1 0-20h232a10 10 0 0 1 0 20zM561.77 458.21H338.66a82.31 82.31 0 0 1-77.12-54L202.19 241a10 10 0 1 1 18.81-6.86l59.35 163.22a62.25 62.25 0 0 0 58.32 40.85h223.1a10 10 0 0 1 0 20z" fill="#3A2E20" p-id="4405"></path><path d="M386.68 796.08a10 10 0 0 1-10-10V461.89a10 10 0 0 1 20 0v324.19a10 10 0 0 1-10 10z" fill="#3A2E20" p-id="4406"></path><path d="M481.06 651.56h-62.92a5 5 0 0 1 0-10h62.92a5 5 0 1 1 0 10z" fill="#FDE3A9" p-id="4407"></path><path d="M786.5 796h-140a35.54 35.54 0 0 1-35.5-35.5v-332a35.54 35.54 0 0 1 35.5-35.5H740a10 10 0 0 1 0 20h-93.5a15.52 15.52 0 0 0-15.5 15.5v332a15.52 15.52 0 0 0 15.5 15.5h140a15.52 15.52 0 0 0 15.5-15.5v-490a15.52 15.52 0 0 0-15.5-15.5H503a10 10 0 0 1 0-20h283.5a35.54 35.54 0 0 1 35.5 35.5v490a35.54 35.54 0 0 1-35.5 35.5z" fill="#3A2E20" p-id="4408"></path></svg>