<?xml version="1.0" standalone="no"?><!DOCTYPE svg PUBLIC "-//W3C//DTD SVG 1.1//EN" "http://www.w3.org/Graphics/SVG/1.1/DTD/svg11.dtd"><svg t="1619444357581" class="icon" viewBox="0 0 1024 1024" version="1.1" xmlns="http://www.w3.org/2000/svg" p-id="5411" xmlns:xlink="http://www.w3.org/1999/xlink" width="200" height="200"><defs><style type="text/css"></style></defs><path d="M892 108.8C892 84 872 64 847.2 64H175.8C151 64 131 84 131 108.8v805.5c0 24.7 20 44.8 44.8 44.8h671.5c24.7 0 44.8-20 44.8-44.8V108.8zM848 915H176V288h672v627z m0-672H176V109h672v134z" fill="#777B88" p-id="5412"></path><path d="M515.3 848.1c121.9 0 221-100.4 221-223.8s-99.1-223.8-221-223.8-221 100.4-221 223.8 99.2 223.8 221 223.8z m0-402.8c94.5 0 171.6 76 175.8 170.9-29 12-104.5 36-161.9-9.5-63-49.8-139.2-36.5-186-20.5 17.3-80.4 87.8-140.9 172.1-140.9z m-13.8 196.6c35 27.7 73.6 36.6 108.8 36.6 29.3 0 56.1-6.2 76.4-12.8-18.4 78.8-88.1 137.7-171.3 137.7-93.5 0-169.9-74.3-175.7-167.8 33.2-14.1 107-37 161.8 6.3z" fill="#777B88" p-id="5413"></path><path d="M783.4 181.7m-33.6 0a33.6 33.6 0 1 0 67.2 0 33.6 33.6 0 1 0-67.2 0Z" fill="#777B88" p-id="5414"></path><path d="M241.7 181.7m-33.6 0a33.6 33.6 0 1 0 67.2 0 33.6 33.6 0 1 0-67.2 0Z" fill="#777B88" p-id="5415"></path><path d="M345.2 181.7m-33.6 0a33.6 33.6 0 1 0 67.2 0 33.6 33.6 0 1 0-67.2 0Z" fill="#777B88" p-id="5416"></path></svg>