<?xml version="1.0" standalone="no"?><!DOCTYPE svg PUBLIC "-//W3C//DTD SVG 1.1//EN" "http://www.w3.org/Graphics/SVG/1.1/DTD/svg11.dtd"><svg t="1619444382131" class="icon" viewBox="0 0 1024 1024" version="1.1" xmlns="http://www.w3.org/2000/svg" p-id="6671" xmlns:xlink="http://www.w3.org/1999/xlink" width="200" height="200"><defs><style type="text/css"></style></defs><path d="M832 896c0 35.346-28.654 64-64 64H256c-35.346 0-64-28.654-64-64V128c0-35.346 28.654-64 64-64h512c35.346 0 64 28.654 64 64v768z m-64-448H256v448h512V448z m0-320H256v256h512V128z" fill="#000000" p-id="6672"></path><path d="M320 192m32 0l0 0q32 0 32 32l0 64q0 32-32 32l0 0q-32 0-32-32l0-64q0-32 32-32Z" fill="#000000" p-id="6673"></path><path d="M320 512m32 0l0 0q32 0 32 32l0 192q0 32-32 32l0 0q-32 0-32-32l0-192q0-32 32-32Z" fill="#000000" p-id="6674"></path></svg>