<?xml version="1.0" standalone="no"?><!DOCTYPE svg PUBLIC "-//W3C//DTD SVG 1.1//EN" "http://www.w3.org/Graphics/SVG/1.1/DTD/svg11.dtd"><svg t="1619444316525" class="icon" viewBox="0 0 1024 1024" version="1.1" xmlns="http://www.w3.org/2000/svg" p-id="3158" xmlns:xlink="http://www.w3.org/1999/xlink" width="200" height="200"><defs><style type="text/css"></style></defs><path d="M875 85H149c-47.1 0-85.4 38.3-85.4 85.4v298.9c0 47.1 38.3 85.4 85.4 85.4h726c47.1 0 85.4-38.3 85.4-85.4V170.4C960.4 123.3 922 85 875 85z m-0.2 384.3H149V170.4h726l-0.2 298.9z" p-id="3159"></path><path d="M405.2 341.2h213.5v85.4H405.2zM661.5 341.2h85.4v85.4h-85.4zM392.7 609.9c-16.7-16.7-43.7-16.7-60.4 0-5.7 5.7-55.2 58.1-55.2 158.3 0 63.6 20.8 93.1 34.6 112.6 7.8 11 8.1 12.1 8.1 15.5 0 23.6 19.1 42.7 42.7 42.7s42.7-19.1 42.7-42.7c0-31.3-13.7-50.7-23.7-64.8-10.2-14.4-19-26.8-19-63.3 0-63.9 28.6-96.1 30.6-98.3 16.3-16.7 16.2-43.5-0.4-60zM542.2 609.9c-16.7-16.7-43.7-16.7-60.4 0-5.7 5.7-55.2 58.1-55.2 158.3 0 63.6 20.8 93.1 34.6 112.6 7.8 11 8.1 12.1 8.1 15.5 0 23.6 19.1 42.7 42.7 42.7s42.7-19.1 42.7-42.7c0-31.3-13.7-50.7-23.7-64.8-10.2-14.4-19-26.8-19-63.3 0-63.9 28.6-96.1 30.6-98.3 16.3-16.7 16.1-43.5-0.4-60zM691.6 609.9c-16.7-16.7-43.7-16.7-60.4 0-5.7 5.7-55.2 58.1-55.2 158.3 0 63.6 20.8 93.1 34.6 112.6 7.8 11 8.1 12.1 8.1 15.5 0 23.6 19.1 42.7 42.7 42.7s42.7-19.1 42.7-42.7c0-31.3-13.7-50.7-23.7-64.8-10.2-14.4-19-26.8-19-63.3 0-63.9 28.6-96.1 30.6-98.3 16.3-16.7 16.2-43.5-0.4-60z" p-id="3160"></path></svg>