<?xml version="1.0" standalone="no"?><!DOCTYPE svg PUBLIC "-//W3C//DTD SVG 1.1//EN" "http://www.w3.org/Graphics/SVG/1.1/DTD/svg11.dtd"><svg t="1619444331038" class="icon" viewBox="0 0 1024 1024" version="1.1" xmlns="http://www.w3.org/2000/svg" p-id="4136" xmlns:xlink="http://www.w3.org/1999/xlink" width="200" height="200"><defs><style type="text/css"></style></defs><path d="M380.06 758.64v33.88h-67.77v-33.88h67.77z m331.83 0v33.88h-67.77v-33.88h67.77zM576.35 385.92h33.88v101.65h-33.88V385.92z m-169.42 0h33.88v101.65h-33.88V385.92zM190.1 673.93h303.22V131.78H190.1v542.15z m677.69 16.95v237.19H833.9v-42.12H190.1v42.12h-33.88V97.9h711.57v592.98z m-33.89-16.95V131.78H527.2v542.15h306.7z m-340.58 33.89H190.1v144.24h303.22V707.82z m33.88 0v144.24h306.7V707.82H527.2z" p-id="4137"></path></svg>