<?xml version="1.0" standalone="no"?><!DOCTYPE svg PUBLIC "-//W3C//DTD SVG 1.1//EN" "http://www.w3.org/Graphics/SVG/1.1/DTD/svg11.dtd"><svg t="1619444473533" class="icon" viewBox="0 0 1024 1024" version="1.1" xmlns="http://www.w3.org/2000/svg" p-id="11195" xmlns:xlink="http://www.w3.org/1999/xlink" width="200" height="200"><defs><style type="text/css"></style></defs><path d="M293.5 63.9h436.9c17.6 0 33.6 7.2 45.1 18.7s18.7 27.5 18.7 45.1v737.9c0 17.6-7.2 33.6-18.7 45.1-10.1 10.1-23.5 16.8-38.4 18.4 0.6 3.2 1 6.6 1 10 0 11.5-9.3 20.8-20.8 20.8s-20.8-9.3-20.8-20.8c0-2.6-1.1-5.1-2.8-6.8s-4.1-2.8-6.7-2.8H337c-2.7 0-5 1.1-6.7 2.7v0.1c-1.8 1.7-2.8 4.2-2.8 6.8 0 11.5-9.3 20.8-20.8 20.8s-20.8-9.3-20.8-20.8c0-3.4 0.3-6.8 1-10-14.9-1.6-28.3-8.3-38.4-18.4-11.6-11.6-18.7-27.5-18.7-45.1V127.8c0-17.5 7.2-33.5 18.8-45.1 11.3-11.5 27.3-18.7 44.9-18.8z" fill="#686868" p-id="11196"></path><path d="M752.7 525.1H271.3v340.6c0 6.1 2.5 11.7 6.5 15.7s9.6 6.5 15.7 6.5H730.4c6.1 0 11.7-2.5 15.7-6.5s6.5-9.6 6.5-15.7V525.1h0.1zM271.3 483.4h481.4V127.8c0-6.1-2.5-11.7-6.5-15.7s-9.6-6.5-15.7-6.5h-437v-0.1c-6 0-11.6 2.5-15.7 6.6h-0.1c-4 4-6.4 9.5-6.4 15.7v355.6z" fill="#F2F2F2" p-id="11197"></path><path d="M681.6 280.8c0-11.5 9.3-20.8 20.8-20.8s20.8 9.3 20.8 20.8v153.3c0 11.5-9.3 20.8-20.8 20.8s-20.8-9.3-20.8-20.8V280.8zM681.6 574.3c0-11.5 9.3-20.8 20.8-20.8s20.8 9.3 20.8 20.8v153.4c0 11.5-9.3 20.8-20.8 20.8s-20.8-9.3-20.8-20.8V574.3z" fill="#686868" p-id="11198"></path><path d="M512.5 217.3c-0.1-0.1-0.2-0.1-0.5-0.1-0.2 0-0.4 0.1-0.5 0.2h-0.1c-0.1 0.1-0.1 0.2-0.1 0.5v0.3l0.2 0.2c0.1 0.1 0.3 0.2 0.5 0.2s0.4-0.1 0.5-0.2h0.1c0-0.1 0.1-0.2 0.1-0.5s-0.1-0.5-0.2-0.6z" fill="#2C3E50" p-id="11199"></path></svg>