<?xml version="1.0" standalone="no"?><!DOCTYPE svg PUBLIC "-//W3C//DTD SVG 1.1//EN" "http://www.w3.org/Graphics/SVG/1.1/DTD/svg11.dtd"><svg t="1619444437991" class="icon" viewBox="0 0 1024 1024" version="1.1" xmlns="http://www.w3.org/2000/svg" p-id="9416" xmlns:xlink="http://www.w3.org/1999/xlink" width="200" height="200"><defs><style type="text/css"></style></defs><path d="M818.17 564.82a424.093 424.093 0 0 0-18.49-97.42c-14.73-45.8-36.75-89.56-61.94-123.22-7.12-9.21-20.19-11.26-29.79-4.67a19.828 19.828 0 0 0-8.59 13.19c-0.93 5.39 0.41 10.92 3.69 15.3 22.57 30.16 42.39 69.73 55.84 111.45 9 28.65 14.6 58.26 16.69 88.22 8.19 112.22-39.99 203.9-133.19 255.91-15.27-120.25-112.62-159.5-117.1-161.27-6-2.32-12.71-1.92-18.39 1.1-84.74 45.1-109.47 120.74-116.61 163.04-83.86-42.25-134.84-121.84-134.84-213.54 0-61.79 32.12-119.04 98.17-174.95 8.78-7.47 17.74-14.78 26.68-22.09 48.51-39.69 98.7-80.66 124.01-143.04 2.75-6.72 5.14-12.84 7.17-18.33 44.68 30.12 141.4 111.4 172.8 266.91 2.22 11.11 13.47 18.35 24.98 16.2 11.58-2.12 19.17-12.84 16.92-23.93-43.38-214.94-199.3-299.83-217.02-308.86-0.58-0.33-1.21-0.61-1.87-0.94-10.47-4.83-22.89-0.69-28.36 9.46-1.4 2.75-2.16 5.78-2.2 8.87-2.01 7.54-10.32 30.89-12.21 35.79-21.41 52.81-65.41 88.72-111.97 126.77-9.13 7.47-18.25 14.94-27.24 22.53-74.71 63.26-112.55 132.44-112.55 205.6 0 118.03 72.07 218.89 188.09 263.13a22.005 22.005 0 0 0 19.94-2.15 20.186 20.186 0 0 0 9.34-17.04c-0.04-4.15 0.3-99.22 87.94-152.31 23.11 12.75 83.62 55.19 83.62 151.56 0 6.95 3.69 13.47 9.78 17.2 6.09 3.76 13.77 4.34 20.38 1.42 126.83-55.05 196.49-170.94 186.32-309.89" p-id="9417"></path></svg>