<?xml version="1.0" standalone="no"?><!DOCTYPE svg PUBLIC "-//W3C//DTD SVG 1.1//EN" "http://www.w3.org/Graphics/SVG/1.1/DTD/svg11.dtd"><svg t="1619444396948" class="icon" viewBox="0 0 1024 1024" version="1.1" xmlns="http://www.w3.org/2000/svg" p-id="7692" xmlns:xlink="http://www.w3.org/1999/xlink" width="200" height="200"><defs><style type="text/css"></style></defs><path d="M927.7 262.2c0-18.1-7.3-34.4-19.1-46.2-11.8-11.8-28.1-19.1-46.2-19.1l-528.7 0.2c-0.9-0.1-1.8-0.2-2.7-0.2l-169.6 0.2c-18 0-34.4 7.4-46.2 19.2-11.9 11.9-19.2 28.2-19.2 46.1h0.1l0.1 470.6c0 18 7.3 34.4 19.2 46.2 11.8 11.8 28.2 19.2 46.1 19.2H211c-0.5 2.8-0.7 5.6-0.7 8.4 0 11.2 9.1 20.3 20.3 20.3 11.2 0 20.3-9.1 20.3-20.3 0-2.3 0.9-4.4 2.5-6 1.4-1.4 3.3-2.3 5.3-2.5l503.8-0.1c0.7 0 1.5 0.1 2.3 0.1 2.4 0 4.5 0.9 6 2.5h0.1c1.5 1.5 2.4 3.6 2.4 6 0 11.2 9.1 20.3 20.3 20.3 11.2 0 20.3-9.1 20.3-20.3 0-2.9-0.2-5.8-0.7-8.6h49.7c18 0 34.4-7.4 46.2-19.2 11.8-11.8 19.1-28.1 19.1-46.1l-0.5-470.7zM310.8 757.7h-54.1l-95.2 0.1v-0.1c-2.8 0-5.5-0.4-8-1.3l-0.3-0.1c-3.4-1.2-6.5-3.3-9.1-5.8-4.5-4.5-7.3-10.7-7.3-17.5v-64.6h174v89.3zM136.8 628l-0.3-365.5c0-3.3 0.6-6.4 1.8-9.3l0.1-0.2v-0.1l0.1-0.2v-0.1l0.1-0.2v-0.1l0.1-0.2c1.2-2.6 2.9-5 5-7.1 4.5-4.5 10.7-7.3 17.5-7.3h149.3l0.1 390.4H136.8z m743.4 122.4c-4.5 4.5-10.7 7.3-17.5 7.3h-99.1l-412.3 0.1V650v-1.8-1.8l-0.1-408.9 511.2-0.2c6.8 0 13 2.8 17.6 7.3 4.5 4.5 7.4 10.7 7.4 17.5l0.3 470.7c-0.1 6.9-2.9 13.1-7.5 17.6z" fill="#1E1E1E" p-id="7693"></path><path d="M265.2 329.4c11.2 0 20.2-9.1 20.2-20.3 0-11.2-9.1-20.3-20.2-20.3h-83.1c-11.2 0-20.3 9.1-20.3 20.3 0 11.2 9.1 20.3 20.3 20.3h83.1zM265.2 583.3c11.2 0 20.2-9.1 20.2-20.3 0-11.2-9.1-20.3-20.2-20.3h-83.1c-11.2 0-20.3 9.1-20.3 20.3 0 11.2 9.1 20.3 20.3 20.3h83.1zM265.2 392.9c11.2 0 20.2-9.1 20.2-20.3 0-11.2-9.1-20.3-20.2-20.3h-14.3c-11.2 0-20.3 9.1-20.3 20.3 0 11.2 9.1 20.3 20.3 20.3h14.3zM196.3 392.9c11.2 0 20.3-9.1 20.3-20.3 0-11.2-9.1-20.3-20.3-20.3H182c-11.2 0-20.3 9.1-20.3 20.3 0 11.2 9.1 20.3 20.3 20.3h14.3zM265.2 456.4c11.2 0 20.2-9.1 20.2-20.3 0-11.2-9.1-20.3-20.2-20.3h-14.3c-11.2 0-20.3 9.1-20.3 20.3 0 11.2 9.1 20.3 20.3 20.3h14.3zM196.3 456.4c11.2 0 20.3-9.1 20.3-20.3 0-11.2-9.1-20.3-20.3-20.3H182c-11.2 0-20.3 9.1-20.3 20.3 0 11.2 9.1 20.3 20.3 20.3h14.3zM265.2 519.8c11.2 0 20.2-9.1 20.2-20.3 0-11.2-9.1-20.3-20.2-20.3h-14.3c-11.2 0-20.3 9.1-20.3 20.3 0 11.2 9.1 20.3 20.3 20.3h14.3zM196.3 519.8c11.2 0 20.3-9.1 20.3-20.3 0-11.2-9.1-20.3-20.3-20.3H182c-11.2 0-20.3 9.1-20.3 20.3 0 11.2 9.1 20.3 20.3 20.3h14.3zM830.3 309c0-11.1-9.1-20.2-20.2-20.2l-389.8 0.2c-11.2 0-20.2 9-20.2 20.2l0.2 377.2c0 11.2 9.1 20.2 20.2 20.2l389.7-0.1c11.2 0 20.2-9.1 20.2-20.2l-0.1-377.3zM440.8 666.1l-0.2-336.8 349.4-0.1 0.2 336.8-349.4 0.1z" fill="#1E1E1E" p-id="7694"></path></svg>