<?xml version="1.0" standalone="no"?><!DOCTYPE svg PUBLIC "-//W3C//DTD SVG 1.1//EN" "http://www.w3.org/Graphics/SVG/1.1/DTD/svg11.dtd"><svg t="1619444415552" class="icon" viewBox="0 0 1024 1024" version="1.1" xmlns="http://www.w3.org/2000/svg" p-id="8145" xmlns:xlink="http://www.w3.org/1999/xlink" width="200" height="200"><defs><style type="text/css"></style></defs><path d="M925.2 767.3c-49-41.1-103.5-74.5-162.6-99.5-79.4-33.6-163.7-50.6-250.6-50.6s-171.2 17-250.6 50.6c-59.1 25-113.5 58.3-162.4 99.3-1.8 1.5-3 3.7-3 6.3 0 4.4 3.6 8 8 8 1.9 0 3.7-0.7 5.1-1.8 47.8-40.1 100.9-72.6 158.6-97 1.4-0.6 2.9-1.2 4.4-1.8v74.4c0 11 6.3 20 13.9 20h452.1c7.7 0 13.9-9 13.9-20v-74.4c1.5 0.6 2.9 1.2 4.4 1.8 57.6 24.4 110.7 56.9 158.4 96.9 1.4 1.2 3.2 1.9 5.2 1.9 4.4 0 8-3.6 8-8 0-2.5-1.1-4.7-2.8-6.1zM736 739.8c0 10.6-5.9 19.3-13.2 19.3H301.2c-7.2 0-13.2-8.7-13.2-19.3v-65.4c71.4-27.3 146.6-41.1 224-41.1s152.6 13.8 224 41.1v65.4z" p-id="8146"></path><path d="M163.1 687.3c1.5 0 2.9-0.4 4-1.1v0.1c31.7-20.9 65.2-38.8 100.5-53.7 77.4-32.7 159.6-49.3 244.4-49.3 84.8 0 167 16.6 244.4 49.3 35 14.8 68.2 32.6 99.7 53.2 1.4 1 3 1.7 4.9 1.7 4.4 0 8-3.6 8-8 0-2.8-1.4-5.2-3.5-6.6h0.1c-32.4-21.3-66.8-39.7-102.8-55-29.5-12.5-59.8-22.7-90.6-30.6V129.1c0-11-6.3-20-13.9-20H365.9c-7.7 0-13.9 9-13.9 20v458.1c-30.8 7.9-61 18.1-90.6 30.6-35.8 15.1-69.9 33.3-102 54.5-2.5 1.3-4.3 4-4.3 7.1 0 4.3 3.6 7.9 8 7.9z m204.9-543c0-10.6 5.9-19.3 13.2-19.3h261.7c7.2 0 13.2 8.7 13.2 19.3v439c-46.9-10.7-95-16.1-144-16.1s-97.1 5.4-144 16.1v-439zM512 814.9c-4.4 0-8 3.6-8 8v84c0 4.4 3.6 8 8 8s8-3.6 8-8v-84c0-4.4-3.6-8-8-8zM628 839.9c-4.4 0-8 3.6-8 8v34c0 4.4 3.6 8 8 8s8-3.6 8-8v-34c0-4.4-3.6-8-8-8zM396 839.9c-4.4 0-8 3.6-8 8v34c0 4.4 3.6 8 8 8s8-3.6 8-8v-34c0-4.4-3.6-8-8-8z" p-id="8147"></path><path d="M603 702.1m-13 0a13 13 0 1 0 26 0 13 13 0 1 0-26 0Z" p-id="8148"></path><path d="M547 702.1m-13 0a13 13 0 1 0 26 0 13 13 0 1 0-26 0Z" p-id="8149"></path><path d="M659 702.1m-13 0a13 13 0 1 0 26 0 13 13 0 1 0-26 0Z" p-id="8150"></path></svg>