<?xml version="1.0" standalone="no"?><!DOCTYPE svg PUBLIC "-//W3C//DTD SVG 1.1//EN" "http://www.w3.org/Graphics/SVG/1.1/DTD/svg11.dtd"><svg t="1619444370378" class="icon" viewBox="0 0 1024 1024" version="1.1" xmlns="http://www.w3.org/2000/svg" p-id="6381" xmlns:xlink="http://www.w3.org/1999/xlink" width="200" height="200"><defs><style type="text/css"></style></defs><path d="M795.566336 905.455347h-52.31018v-27.472253h52.31018v27.472253z m-48.546858-3.763322h44.783536v-19.945608h-44.783536v19.945608zM245.368614 905.455347H193.058434v-27.472253h52.31018v27.472253z m-48.546857-3.763322h44.783535v-19.945608H196.821757v19.945608zM724.815877 648.044101H269.077545V201.714076h455.738332v446.330025z m-436.92172-18.816611h418.105108V220.530687H287.894157v408.696803z" fill="" p-id="6382"></path><path d="M275.098861 830.188901H147.898567v-370.310915h127.200294v15.053289H162.951856v340.204337h112.147005zM850.134509 830.188901h-158.435869v-15.053289h143.38258v-340.204337h-130.587284v-15.053289h145.640573z" fill="" p-id="6383"></path><path d="M249.884601 815.135612h490.737229v15.053289H249.884601z" fill="" p-id="6384"></path></svg>