<?xml version="1.0" standalone="no"?><!DOCTYPE svg PUBLIC "-//W3C//DTD SVG 1.1//EN" "http://www.w3.org/Graphics/SVG/1.1/DTD/svg11.dtd"><svg t="1619444462592" class="icon" viewBox="0 0 1024 1024" version="1.1" xmlns="http://www.w3.org/2000/svg" p-id="10350" xmlns:xlink="http://www.w3.org/1999/xlink" width="200" height="200"><defs><style type="text/css"></style></defs><path d="M697.6 678.4V550.4H332.8v128H172.8a32 32 0 0 1-32-32V300.8a32 32 0 0 1 32-32h678.4a32 32 0 0 1 32 32v345.6a32 32 0 0 1-32 32h-153.6z m121.6-64V332.8H204.8v281.6h64V486.4h492.8v128h57.6z m-83.2-166.4a44.8 44.8 0 1 1 0-89.6 44.8 44.8 0 0 1 0 89.6z m-249.6 230.4v60.8a22.4 22.4 0 0 1-44.8 0V678.4h-6.4a32 32 0 0 1 0-64h172.8a32 32 0 0 1 0 64v60.8a22.4 22.4 0 0 1-44.8 0V678.4H486.4z" fill="#5C646F" p-id="10351"></path></svg>