<?xml version="1.0" standalone="no"?><!DOCTYPE svg PUBLIC "-//W3C//DTD SVG 1.1//EN" "http://www.w3.org/Graphics/SVG/1.1/DTD/svg11.dtd"><svg t="1619444427732" class="icon" viewBox="0 0 1024 1024" version="1.1" xmlns="http://www.w3.org/2000/svg" p-id="9129" xmlns:xlink="http://www.w3.org/1999/xlink" width="200" height="200"><defs><style type="text/css"></style></defs><path d="M932.864 777.898667h-829.44c-15.36 0-27.989333-12.629333-27.989333-27.989334V295.253333c0-15.36 12.629333-27.989333 27.989333-27.989333h829.44c15.36 0 27.989333 12.629333 27.989333 27.989333v454.997334c0 15.018667-12.629333 27.648-27.989333 27.648zM103.424 284.330667c-5.802667 0-10.922667 4.778667-10.922667 10.922666v454.997334c0 5.802667 4.778667 10.922667 10.922667 10.922666h829.44c5.802667 0 10.922667-4.778667 10.922667-10.922666V295.253333c0-5.802667-4.778667-10.922667-10.922667-10.922666h-829.44z" fill="" p-id="9130"></path><path d="M632.832 816.469333h-210.944c-15.36 0-27.989333-12.629333-27.989333-27.989333s12.629333-27.989333 27.989333-27.989333h210.944c15.36 0 27.989333 12.629333 27.989333 27.989333s-12.629333 27.989333-27.989333 27.989333z m-211.285333-38.570666c-5.802667 0-10.922667 4.778667-10.922667 10.922666s4.778667 10.922667 10.922667 10.922667h210.944c5.802667 0 10.922667-4.778667 10.922666-10.922667s-4.778667-10.922667-10.922666-10.922666h-210.944z" fill="" p-id="9131"></path><path d="M787.456 920.576H285.013333c-15.36 0-27.989333-12.629333-27.989333-27.989333v-53.589334c0-15.36 12.629333-27.989333 27.989333-27.989333h502.442667c15.36 0 27.989333 12.629333 27.989333 27.989333v53.589334c-0.341333 15.701333-12.629333 27.989333-27.989333 27.989333z m-502.442667-92.16c-5.802667 0-10.922667 4.778667-10.922666 10.922667v53.589333c0 5.802667 4.778667 10.922667 10.922666 10.922667h502.442667c5.802667 0 10.922667-4.778667 10.922667-10.922667v-53.589333c0-5.802667-4.778667-10.922667-10.922667-10.922667H285.013333zM402.432 284.330667c-1.706667 0-3.754667-0.682667-5.12-1.706667L230.4 151.210667c-3.754667-3.072-4.437333-8.192-1.365333-11.946667s8.192-4.437333 11.946666-1.365333l166.570667 131.413333c3.754667 3.072 4.437333 8.192 1.365333 11.946667-1.706667 2.048-4.096 3.072-6.485333 3.072zM636.928 282.282667c-2.389333 0-5.12-1.024-6.826667-3.413334-3.072-3.754667-2.389333-9.216 1.365334-11.946666l166.570666-131.413334c3.754667-3.072 9.216-2.389333 11.946667 1.365334 3.072 3.754667 2.389333 9.216-1.365333 11.946666l-166.570667 131.413334c-1.365333 1.365333-3.072 2.048-5.12 2.048z" fill="" p-id="9132"></path></svg>